<svg width="207" height="32" viewBox="0 0 207 32" fill="none" xmlns="http://www.w3.org/2000/svg">
<path d="M49.47 24.6121C49.2793 24.6121 49.1233 24.5514 49.002 24.4301C48.8807 24.3087 48.82 24.1527 48.82 23.9621V7.06206C48.82 6.87139 48.8807 6.71539 49.002 6.59406C49.1233 6.47273 49.2793 6.41206 49.47 6.41206H52.902C53.0753 6.41206 53.2227 6.47273 53.344 6.59406C53.4827 6.71539 53.552 6.87139 53.552 7.06206V20.6861H61.404C61.5947 20.6861 61.7507 20.7554 61.872 20.8941C62.0107 21.0154 62.08 21.1714 62.08 21.3621V23.9621C62.08 24.1527 62.0107 24.3087 61.872 24.4301C61.7507 24.5514 61.5947 24.6121 61.404 24.6121H49.47ZM70.3427 24.8721C68.2974 24.8721 66.6681 24.3174 65.4547 23.2081C64.2414 22.0987 63.6087 20.4521 63.5567 18.2681C63.5567 18.1467 63.5567 17.9907 63.5567 17.8001C63.5567 17.6094 63.5567 17.4621 63.5567 17.3581C63.6087 15.9887 63.9121 14.8187 64.4667 13.8481C65.0387 12.8601 65.8187 12.1147 66.8067 11.6121C67.8121 11.0921 68.9821 10.8321 70.3167 10.8321C71.8421 10.8321 73.0987 11.1354 74.0867 11.7421C75.0921 12.3487 75.8461 13.1721 76.3487 14.2121C76.8514 15.2521 77.1027 16.4394 77.1027 17.7741V18.3981C77.1027 18.5887 77.0334 18.7447 76.8947 18.8661C76.7734 18.9874 76.6261 19.0481 76.4527 19.0481H68.1327C68.1327 19.0654 68.1327 19.0914 68.1327 19.1261C68.1327 19.1607 68.1327 19.1954 68.1327 19.2301C68.1501 19.7327 68.2367 20.1921 68.3927 20.6081C68.5487 21.0241 68.7914 21.3534 69.1207 21.5961C69.4501 21.8387 69.8487 21.9601 70.3167 21.9601C70.6634 21.9601 70.9494 21.9081 71.1747 21.8041C71.4174 21.6827 71.6167 21.5527 71.7727 21.4141C71.9287 21.2581 72.0501 21.1281 72.1367 21.0241C72.2927 20.8507 72.4141 20.7467 72.5007 20.7121C72.6047 20.6601 72.7607 20.6341 72.9687 20.6341H76.1927C76.3661 20.6341 76.5047 20.6861 76.6087 20.7901C76.7301 20.8767 76.7821 21.0067 76.7647 21.1801C76.7474 21.4747 76.6001 21.8301 76.3227 22.2461C76.0454 22.6621 75.6381 23.0781 75.1007 23.4941C74.5807 23.8927 73.9221 24.2221 73.1247 24.4821C72.3274 24.7421 71.4001 24.8721 70.3427 24.8721ZM68.1327 16.4741H72.5267V16.4221C72.5267 15.8674 72.4401 15.3821 72.2667 14.9661C72.1107 14.5501 71.8594 14.2294 71.5127 14.0041C71.1834 13.7787 70.7847 13.6661 70.3167 13.6661C69.8487 13.6661 69.4501 13.7787 69.1207 14.0041C68.8087 14.2294 68.5661 14.5501 68.3927 14.9661C68.2194 15.3821 68.1327 15.8674 68.1327 16.4221V16.4741ZM83.7782 24.8721C82.8422 24.8721 82.0016 24.6987 81.2562 24.3521C80.5282 23.9881 79.9476 23.5027 79.5142 22.8961C79.0809 22.2894 78.8642 21.6047 78.8642 20.8421C78.8642 19.6114 79.3669 18.6407 80.3722 17.9301C81.3776 17.2021 82.7122 16.7081 84.3762 16.4481L87.6262 15.9541V15.5901C87.6262 14.9661 87.4962 14.4894 87.2362 14.1601C86.9762 13.8307 86.4996 13.6661 85.8062 13.6661C85.3209 13.6661 84.9222 13.7614 84.6102 13.9521C84.3156 14.1427 84.0816 14.4027 83.9082 14.7321C83.7522 14.9574 83.5356 15.0701 83.2582 15.0701H80.3462C80.1556 15.0701 80.0082 15.0181 79.9042 14.9141C79.8002 14.7927 79.7569 14.6541 79.7742 14.4981C79.7742 14.1861 79.8869 13.8307 80.1122 13.4321C80.3549 13.0161 80.7189 12.6087 81.2042 12.2101C81.6896 11.8114 82.3136 11.4821 83.0762 11.2221C83.8389 10.9621 84.7576 10.8321 85.8322 10.8321C86.9589 10.8321 87.9209 10.9621 88.7182 11.2221C89.5156 11.4821 90.1569 11.8461 90.6422 12.3141C91.1449 12.7821 91.5176 13.3367 91.7602 13.9781C92.0029 14.6021 92.1242 15.2954 92.1242 16.0581V23.9621C92.1242 24.1527 92.0549 24.3087 91.9162 24.4301C91.7949 24.5514 91.6476 24.6121 91.4742 24.6121H88.4582C88.2676 24.6121 88.1116 24.5514 87.9902 24.4301C87.8689 24.3087 87.8082 24.1527 87.8082 23.9621V23.0521C87.5829 23.3814 87.2796 23.6847 86.8982 23.9621C86.5169 24.2394 86.0662 24.4561 85.5462 24.6121C85.0436 24.7854 84.4542 24.8721 83.7782 24.8721ZM85.0002 21.9081C85.5029 21.9081 85.9536 21.8041 86.3522 21.5961C86.7682 21.3707 87.0889 21.0327 87.3142 20.5821C87.5569 20.1141 87.6782 19.5334 87.6782 18.8401V18.4761L85.4682 18.8661C84.6536 19.0047 84.0556 19.2214 83.6742 19.5161C83.3102 19.7934 83.1282 20.1227 83.1282 20.5041C83.1282 20.7987 83.2149 21.0501 83.3882 21.2581C83.5616 21.4661 83.7869 21.6307 84.0642 21.7521C84.3416 21.8561 84.6536 21.9081 85.0002 21.9081ZM100.284 24.8721C99.4522 24.8721 98.6982 24.7421 98.0222 24.4821C97.3635 24.2047 96.7915 23.8061 96.3062 23.2861C95.8382 22.7487 95.4742 22.1074 95.2142 21.3621C94.9542 20.5994 94.8068 19.7327 94.7722 18.7621C94.7548 18.4154 94.7462 18.1121 94.7462 17.8521C94.7462 17.5747 94.7548 17.2714 94.7722 16.9421C94.8068 16.0061 94.9542 15.1654 95.2142 14.4201C95.4742 13.6747 95.8382 13.0334 96.3062 12.4961C96.7742 11.9587 97.3462 11.5514 98.0222 11.2741C98.6982 10.9794 99.4522 10.8321 100.284 10.8321C101.151 10.8321 101.896 10.9794 102.52 11.2741C103.144 11.5514 103.673 11.9154 104.106 12.3661V6.80206C104.106 6.61139 104.167 6.45539 104.288 6.33406C104.409 6.21273 104.565 6.15206 104.756 6.15206H107.928C108.101 6.15206 108.249 6.21273 108.37 6.33406C108.509 6.45539 108.578 6.61139 108.578 6.80206V23.9621C108.578 24.1527 108.509 24.3087 108.37 24.4301C108.249 24.5514 108.101 24.6121 107.928 24.6121H104.99C104.799 24.6121 104.643 24.5514 104.522 24.4301C104.401 24.3087 104.34 24.1527 104.34 23.9621V23.1301C103.924 23.6327 103.387 24.0487 102.728 24.3781C102.069 24.7074 101.255 24.8721 100.284 24.8721ZM101.688 21.3881C102.277 21.3881 102.737 21.2667 103.066 21.0241C103.413 20.7641 103.664 20.4347 103.82 20.0361C103.993 19.6374 104.089 19.2041 104.106 18.7361C104.123 18.3894 104.132 18.0601 104.132 17.7481C104.132 17.4361 104.123 17.1154 104.106 16.7861C104.089 16.3527 103.993 15.9541 103.82 15.5901C103.647 15.2087 103.387 14.9054 103.04 14.6801C102.693 14.4374 102.243 14.3161 101.688 14.3161C101.116 14.3161 100.657 14.4374 100.31 14.6801C99.9808 14.9227 99.7468 15.2521 99.6082 15.6681C99.4695 16.0841 99.3828 16.5434 99.3482 17.0461C99.2962 17.5834 99.2962 18.1207 99.3482 18.6581C99.3828 19.1607 99.4695 19.6201 99.6082 20.0361C99.7468 20.4521 99.9808 20.7814 100.31 21.0241C100.657 21.2667 101.116 21.3881 101.688 21.3881Z" fill="white"/>
<path d="M118.478 24.6121C118.287 24.6121 118.131 24.5514 118.01 24.4301C117.888 24.3087 117.828 24.1527 117.828 23.9621V7.06206C117.828 6.87139 117.888 6.71539 118.01 6.59406C118.131 6.47273 118.287 6.41206 118.478 6.41206H121.91C122.083 6.41206 122.23 6.47273 122.352 6.59406C122.49 6.71539 122.56 6.87139 122.56 7.06206V20.6861H130.412C130.602 20.6861 130.758 20.7554 130.88 20.8941C131.018 21.0154 131.088 21.1714 131.088 21.3621V23.9621C131.088 24.1527 131.018 24.3087 130.88 24.4301C130.758 24.5514 130.602 24.6121 130.412 24.6121H118.478ZM139.35 24.8721C137.305 24.8721 135.676 24.3174 134.462 23.2081C133.249 22.0987 132.616 20.4521 132.564 18.2681C132.564 18.1467 132.564 17.9907 132.564 17.8001C132.564 17.6094 132.564 17.4621 132.564 17.3581C132.616 15.9887 132.92 14.8187 133.474 13.8481C134.046 12.8601 134.826 12.1147 135.814 11.6121C136.82 11.0921 137.99 10.8321 139.324 10.8321C140.85 10.8321 142.106 11.1354 143.094 11.7421C144.1 12.3487 144.854 13.1721 145.356 14.2121C145.859 15.2521 146.11 16.4394 146.11 17.7741V18.3981C146.11 18.5887 146.041 18.7447 145.902 18.8661C145.781 18.9874 145.634 19.0481 145.46 19.0481H137.14C137.14 19.0654 137.14 19.0914 137.14 19.1261C137.14 19.1607 137.14 19.1954 137.14 19.2301C137.158 19.7327 137.244 20.1921 137.4 20.6081C137.556 21.0241 137.799 21.3534 138.128 21.5961C138.458 21.8387 138.856 21.9601 139.324 21.9601C139.671 21.9601 139.957 21.9081 140.182 21.8041C140.425 21.6827 140.624 21.5527 140.78 21.4141C140.936 21.2581 141.058 21.1281 141.144 21.0241C141.3 20.8507 141.422 20.7467 141.508 20.7121C141.612 20.6601 141.768 20.6341 141.976 20.6341H145.2C145.374 20.6341 145.512 20.6861 145.616 20.7901C145.738 20.8767 145.79 21.0067 145.772 21.1801C145.755 21.4747 145.608 21.8301 145.33 22.2461C145.053 22.6621 144.646 23.0781 144.108 23.4941C143.588 23.8927 142.93 24.2221 142.132 24.4821C141.335 24.7421 140.408 24.8721 139.35 24.8721ZM137.14 16.4741H141.534V16.4221C141.534 15.8674 141.448 15.3821 141.274 14.9661C141.118 14.5501 140.867 14.2294 140.52 14.0041C140.191 13.7787 139.792 13.6661 139.324 13.6661C138.856 13.6661 138.458 13.7787 138.128 14.0041C137.816 14.2294 137.574 14.5501 137.4 14.9661C137.227 15.3821 137.14 15.8674 137.14 16.4221V16.4741ZM152.786 24.8721C151.85 24.8721 151.009 24.6987 150.264 24.3521C149.536 23.9881 148.955 23.5027 148.522 22.8961C148.089 22.2894 147.872 21.6047 147.872 20.8421C147.872 19.6114 148.375 18.6407 149.38 17.9301C150.385 17.2021 151.72 16.7081 153.384 16.4481L156.634 15.9541V15.5901C156.634 14.9661 156.504 14.4894 156.244 14.1601C155.984 13.8307 155.507 13.6661 154.814 13.6661C154.329 13.6661 153.93 13.7614 153.618 13.9521C153.323 14.1427 153.089 14.4027 152.916 14.7321C152.76 14.9574 152.543 15.0701 152.266 15.0701H149.354C149.163 15.0701 149.016 15.0181 148.912 14.9141C148.808 14.7927 148.765 14.6541 148.782 14.4981C148.782 14.1861 148.895 13.8307 149.12 13.4321C149.363 13.0161 149.727 12.6087 150.212 12.2101C150.697 11.8114 151.321 11.4821 152.084 11.2221C152.847 10.9621 153.765 10.8321 154.84 10.8321C155.967 10.8321 156.929 10.9621 157.726 11.2221C158.523 11.4821 159.165 11.8461 159.65 12.3141C160.153 12.7821 160.525 13.3367 160.768 13.9781C161.011 14.6021 161.132 15.2954 161.132 16.0581V23.9621C161.132 24.1527 161.063 24.3087 160.924 24.4301C160.803 24.5514 160.655 24.6121 160.482 24.6121H157.466C157.275 24.6121 157.119 24.5514 156.998 24.4301C156.877 24.3087 156.816 24.1527 156.816 23.9621V23.0521C156.591 23.3814 156.287 23.6847 155.906 23.9621C155.525 24.2394 155.074 24.4561 154.554 24.6121C154.051 24.7854 153.462 24.8721 152.786 24.8721ZM154.008 21.9081C154.511 21.9081 154.961 21.8041 155.36 21.5961C155.776 21.3707 156.097 21.0327 156.322 20.5821C156.565 20.1141 156.686 19.5334 156.686 18.8401V18.4761L154.476 18.8661C153.661 19.0047 153.063 19.2214 152.682 19.5161C152.318 19.7934 152.136 20.1227 152.136 20.5041C152.136 20.7987 152.223 21.0501 152.396 21.2581C152.569 21.4661 152.795 21.6307 153.072 21.7521C153.349 21.8561 153.661 21.9081 154.008 21.9081ZM169.292 24.8721C168.46 24.8721 167.706 24.7421 167.03 24.4821C166.371 24.2047 165.799 23.8061 165.314 23.2861C164.846 22.7487 164.482 22.1074 164.222 21.3621C163.962 20.5994 163.814 19.7327 163.78 18.7621C163.762 18.4154 163.754 18.1121 163.754 17.8521C163.754 17.5747 163.762 17.2714 163.78 16.9421C163.814 16.0061 163.962 15.1654 164.222 14.4201C164.482 13.6747 164.846 13.0334 165.314 12.4961C165.782 11.9587 166.354 11.5514 167.03 11.2741C167.706 10.9794 168.46 10.8321 169.292 10.8321C170.158 10.8321 170.904 10.9794 171.528 11.2741C172.152 11.5514 172.68 11.9154 173.114 12.3661V6.80206C173.114 6.61139 173.174 6.45539 173.296 6.33406C173.417 6.21273 173.573 6.15206 173.764 6.15206H176.936C177.109 6.15206 177.256 6.21273 177.378 6.33406C177.516 6.45539 177.586 6.61139 177.586 6.80206V23.9621C177.586 24.1527 177.516 24.3087 177.378 24.4301C177.256 24.5514 177.109 24.6121 176.936 24.6121H173.998C173.807 24.6121 173.651 24.5514 173.53 24.4301C173.408 24.3087 173.348 24.1527 173.348 23.9621V23.1301C172.932 23.6327 172.394 24.0487 171.736 24.3781C171.077 24.7074 170.262 24.8721 169.292 24.8721ZM170.696 21.3881C171.285 21.3881 171.744 21.2667 172.074 21.0241C172.42 20.7641 172.672 20.4347 172.828 20.0361C173.001 19.6374 173.096 19.2041 173.114 18.7361C173.131 18.3894 173.14 18.0601 173.14 17.7481C173.14 17.4361 173.131 17.1154 173.114 16.7861C173.096 16.3527 173.001 15.9541 172.828 15.5901C172.654 15.2087 172.394 14.9054 172.048 14.6801C171.701 14.4374 171.25 14.3161 170.696 14.3161C170.124 14.3161 169.664 14.4374 169.318 14.6801C168.988 14.9227 168.754 15.2521 168.616 15.6681C168.477 16.0841 168.39 16.5434 168.356 17.0461C168.304 17.5834 168.304 18.1207 168.356 18.6581C168.39 19.1607 168.477 19.6201 168.616 20.0361C168.754 20.4521 168.988 20.7814 169.318 21.0241C169.664 21.2667 170.124 21.3881 170.696 21.3881ZM187.072 24.8721C185.027 24.8721 183.397 24.3174 182.184 23.2081C180.971 22.0987 180.338 20.4521 180.286 18.2681C180.286 18.1467 180.286 17.9907 180.286 17.8001C180.286 17.6094 180.286 17.4621 180.286 17.3581C180.338 15.9887 180.641 14.8187 181.196 13.8481C181.768 12.8601 182.548 12.1147 183.536 11.6121C184.541 11.0921 185.711 10.8321 187.046 10.8321C188.571 10.8321 189.828 11.1354 190.816 11.7421C191.821 12.3487 192.575 13.1721 193.078 14.2121C193.581 15.2521 193.832 16.4394 193.832 17.7741V18.3981C193.832 18.5887 193.763 18.7447 193.624 18.8661C193.503 18.9874 193.355 19.0481 193.182 19.0481H184.862C184.862 19.0654 184.862 19.0914 184.862 19.1261C184.862 19.1607 184.862 19.1954 184.862 19.2301C184.879 19.7327 184.966 20.1921 185.122 20.6081C185.278 21.0241 185.521 21.3534 185.85 21.5961C186.179 21.8387 186.578 21.9601 187.046 21.9601C187.393 21.9601 187.679 21.9081 187.904 21.8041C188.147 21.6827 188.346 21.5527 188.502 21.4141C188.658 21.2581 188.779 21.1281 188.866 21.0241C189.022 20.8507 189.143 20.7467 189.23 20.7121C189.334 20.6601 189.49 20.6341 189.698 20.6341H192.922C193.095 20.6341 193.234 20.6861 193.338 20.7901C193.459 20.8767 193.511 21.0067 193.494 21.1801C193.477 21.4747 193.329 21.8301 193.052 22.2461C192.775 22.6621 192.367 23.0781 191.83 23.4941C191.31 23.8927 190.651 24.2221 189.854 24.4821C189.057 24.7421 188.129 24.8721 187.072 24.8721ZM184.862 16.4741H189.256V16.4221C189.256 15.8674 189.169 15.3821 188.996 14.9661C188.84 14.5501 188.589 14.2294 188.242 14.0041C187.913 13.7787 187.514 13.6661 187.046 13.6661C186.578 13.6661 186.179 13.7787 185.85 14.0041C185.538 14.2294 185.295 14.5501 185.122 14.9661C184.949 15.3821 184.862 15.8674 184.862 16.4221V16.4741ZM197.102 24.6121C196.911 24.6121 196.755 24.5514 196.634 24.4301C196.512 24.3087 196.452 24.1527 196.452 23.9621V11.7421C196.452 11.5687 196.512 11.4214 196.634 11.3001C196.755 11.1614 196.911 11.0921 197.102 11.0921H200.092C200.282 11.0921 200.438 11.1614 200.56 11.3001C200.681 11.4214 200.742 11.5687 200.742 11.7421V12.7821C201.21 12.2447 201.764 11.8287 202.406 11.5341C203.064 11.2394 203.801 11.0921 204.616 11.0921H205.76C205.933 11.0921 206.08 11.1527 206.202 11.2741C206.34 11.3954 206.41 11.5514 206.41 11.7421V14.4201C206.41 14.5934 206.34 14.7494 206.202 14.8881C206.08 15.0094 205.933 15.0701 205.76 15.0701H203.238C202.527 15.0701 201.972 15.2694 201.574 15.6681C201.192 16.0494 201.002 16.5954 201.002 17.3061V23.9621C201.002 24.1527 200.932 24.3087 200.794 24.4301C200.672 24.5514 200.516 24.6121 200.326 24.6121H197.102Z" fill="#0AD5FF"/>
<g clip-path="url(#clip0_15_28)">
<path fill-rule="evenodd" clip-rule="evenodd" d="M13.022 16.0252L4.17529 31.3364H21.7637L30.6363 16.0234L13.022 16.0252Z" fill="#0463EF"/>
<path fill-rule="evenodd" clip-rule="evenodd" d="M21.8973 0.887939H8.7167L0 16.2345H12.8989L21.8973 0.887939Z" fill="#0AD5FF"/>
</g>
<defs>
<clipPath id="clip0_15_28">
<rect width="48" height="30.4486" fill="white" transform="translate(0 0.887939)"/>
</clipPath>
</defs>
</svg>
